<?xml version="1.0" encoding="utf-8"?>
<!-- Generator: Adobe Illustrator 27.5.0, SVG Export Plug-In . SVG Version: 6.00 Build 0)  -->
<svg version="1.1" id="Layer_1" xmlns="http://www.w3.org/2000/svg" xmlns:xlink="http://www.w3.org/1999/xlink" x="0px" y="0px"
	 viewBox="0 0 968.88 251.43" style="enable-background:new 0 0 968.88 251.43;" xml:space="preserve">
<style type="text/css">
	.st0{fill:#FFFFFF;}
	.st1{fill:#B9202E;}
	.st2{fill-rule:evenodd;clip-rule:evenodd;fill:#FFFFFF;}
</style>
<g>
	<g>
		<path class="st0" d="M535.56,174.5l6.78-3.71c4.77,8.02,10.29,12.03,16.54,12.03c2.67,0,5.19-0.57,7.54-1.71s4.14-2.67,5.37-4.58
			c1.23-1.91,1.85-3.95,1.85-6.09c0-2.44-0.9-4.84-2.71-7.18c-2.5-3.23-7.05-7.13-13.67-11.68c-6.65-4.59-10.79-7.9-12.42-9.95
			c-2.82-3.43-4.23-7.15-4.23-11.14c0-3.17,0.83-6.06,2.5-8.66c1.66-2.61,4.01-4.66,7.02-6.17c3.02-1.5,6.3-2.25,9.84-2.25
			c3.76,0,7.28,0.85,10.55,2.55c3.27,1.7,6.74,4.83,10.39,9.38l-6.51,4.51c-3.01-3.63-5.56-6.02-7.68-7.18
			c-2.11-1.16-4.42-1.73-6.92-1.73c-3.22,0-5.85,0.89-7.89,2.68c-2.04,1.78-3.06,3.97-3.06,6.58c0,1.58,0.36,3.12,1.08,4.6
			c0.72,1.49,2.04,3.1,3.96,4.85c1.05,0.92,4.48,3.35,10.31,7.28c6.9,4.65,11.64,8.8,14.21,12.43s3.85,7.28,3.85,10.94
			c0,5.28-2.2,9.87-6.59,13.76c-4.39,3.9-9.74,5.84-16.03,5.84c-4.85,0-9.24-1.18-13.18-3.54C542.52,184,538.89,180.05,535.56,174.5
			z"/>
		<polygon class="st0" points="620.45,114.1 618.5,114.1 580.8,186.93 589.7,186.93 600.96,165.22 600.96,165.22 619.44,129.58 
			637.92,165.68 649.05,186.93 657.66,186.93 		"/>
		<polygon class="st0" points="842.59,114.1 840.63,114.1 802.93,186.93 811.83,186.93 823.09,165.22 823.09,165.22 841.58,129.58 
			860.05,165.68 871.18,186.93 879.8,186.93 		"/>
		<path class="st0" d="M755.66,174.5l6.78-3.71c4.77,8.02,10.29,12.03,16.54,12.03c2.68,0,5.19-0.57,7.54-1.71s4.14-2.67,5.37-4.58
			c1.23-1.91,1.85-3.95,1.85-6.09c0-2.44-0.91-4.84-2.71-7.18c-2.49-3.23-7.05-7.13-13.67-11.68c-6.65-4.59-10.79-7.9-12.42-9.95
			c-2.82-3.43-4.23-7.15-4.23-11.14c0-3.17,0.83-6.06,2.5-8.66c1.66-2.61,4-4.66,7.02-6.17c3.02-1.5,6.3-2.25,9.84-2.25
			c3.76,0,7.28,0.85,10.55,2.55c3.27,1.7,6.74,4.83,10.39,9.38l-6.51,4.51c-3-3.63-5.56-6.02-7.67-7.18
			c-2.12-1.16-4.42-1.73-6.91-1.73c-3.22,0-5.85,0.89-7.89,2.68c-2.05,1.78-3.06,3.97-3.06,6.58c0,1.58,0.36,3.12,1.09,4.6
			c0.72,1.49,2.04,3.1,3.95,4.85c1.05,0.92,4.49,3.35,10.31,7.28c6.91,4.65,11.64,8.8,14.21,12.43s3.85,7.28,3.85,10.94
			c0,5.28-2.2,9.87-6.59,13.76c-4.4,3.9-9.74,5.84-16.03,5.84c-4.85,0-9.24-1.18-13.18-3.54C762.62,184,758.98,180.05,755.66,174.5z
			"/>
		<rect x="884.26" y="114.1" class="st0" width="7.98" height="72.82"/>
		<path class="st0" d="M901.67,186.93v-72.82h16.55c11.93,0,20.59,0.87,25.98,2.62c7.74,2.48,13.79,6.77,18.14,12.87
			c4.36,6.1,6.54,13.38,6.54,21.83c0,7.29-1.73,13.71-5.18,19.26c-3.45,5.54-7.94,9.64-13.46,12.28
			c-5.51,2.64-13.25,3.96-23.19,3.96L901.67,186.93L901.67,186.93z M909.32,180.05h9.22c11.03,0,18.67-0.63,22.94-1.88
			c6-1.78,10.72-4.99,14.16-9.62c3.44-4.64,5.15-10.3,5.15-16.99c0-7.03-1.86-13.03-5.58-18.01c-3.73-4.98-8.91-8.39-15.57-10.24
			c-4.99-1.39-13.21-2.08-24.68-2.08h-5.64L909.32,180.05L909.32,180.05z"/>
		<path class="st1" d="M842.21,155.28c-8.92,0-16.15,7.23-16.15,16.14c0,8.92,7.23,16.14,16.15,16.14c8.91,0,16.14-7.23,16.14-16.14
			C858.35,162.5,851.12,155.28,842.21,155.28z M842.21,182.4c-2.65,0-4.81-2.15-4.81-4.8c0-2.65,2.15-4.8,4.81-4.8
			c2.65,0,4.8,2.15,4.8,4.8C847.01,180.25,844.86,182.4,842.21,182.4z"/>
		<polygon class="st0" points="663.55,186.93 674.97,114.1 676.27,114.1 708.71,173.86 740.83,114.1 742.11,114.1 753.59,186.93 
			745.77,186.93 737.89,134.85 709.68,186.93 707.64,186.93 679.09,134.45 671.25,186.93 		"/>
	</g>
	<g>
		<path class="st2" d="M366.25,181.93L366.25,181.93h0.01c5.73,0,12.59-0.75,18.48-3.12c1.13-0.45,2.24-0.98,3.29-1.56
			c1.03-0.57,2.03-1.22,2.96-1.94l0,0H391l0.39-0.32l0.46,0.22l6.06,2.82l1.01,0.47l-0.73,0.84c-3.24,3.66-7.58,6.18-12.28,7.88
			c-0.91,0.33-1.84,0.62-2.78,0.89c-5.7,1.65-11.74,2.22-16.86,2.22v0.01h-0.01c-7.28,0-16.61-1.17-24.1-5.05
			c-1.48-0.77-2.88-1.64-4.18-2.62c-1.3-0.99-2.51-2.1-3.59-3.33l0,0v-0.01l-0.67-0.77l0.89-0.49l50.34-28.42
			c-2.69-1.13-5.56-1.89-8.47-2.39c-3.44-0.58-6.92-0.8-10.17-0.8c-5.73,0-12.59,0.75-18.45,3.12c-1.13,0.46-2.22,0.97-3.27,1.55
			c-1.04,0.59-2.03,1.24-2.94,1.95l0,0h-0.01l-0.4,0.31l-0.45-0.21l-6.14-2.82l-1.01-0.46l0.74-0.84c3.26-3.65,7.62-6.17,12.34-7.88
			c0.91-0.32,1.83-0.63,2.77-0.89c5.71-1.65,11.73-2.22,16.82-2.22v-0.01l0,0c7.34,0,16.87,1.33,24.47,5.31
			c1.49,0.79,2.92,1.66,4.22,2.65c1.32,1,2.54,2.11,3.61,3.35l0,0l0.69,0.76l-0.89,0.51l-49.68,28.5c2.04,0.77,4.18,1.36,6.33,1.78
			c0.57,0.11,1.1,0.2,1.59,0.29C359.91,181.74,363.19,181.93,366.25,181.93L366.25,181.93z M310.33,180.5
			c4.13-0.99,8.1-2.62,11.48-5.19v-5.68c-3.39-2.59-7.37-4.2-11.5-5.17c-4.3-1.01-8.77-1.33-12.91-1.33
			c-5.73,0-12.62,0.78-18.47,3.18c-1.14,0.46-2.23,0.98-3.27,1.58c-0.93,0.53-1.81,1.1-2.62,1.73v5.82c2.68,2.05,5.91,3.5,9.33,4.5
			c0.67,0.2,1.38,0.38,2.11,0.55c4.38,1.03,8.92,1.39,12.91,1.39l0,0h0.01C301.57,181.87,306.04,181.52,310.33,180.5L310.33,180.5z
			 M297.39,138.01L297.39,138.01L297.39,138.01c7.34-0.01,16.65,1.19,24.15,5.08c1.46,0.76,2.87,1.62,4.17,2.6
			c1.31,0.98,2.51,2.08,3.6,3.31l0,0l0.01,0.01l0.22,0.24v0.32v29.23v0.31l-0.21,0.24c-3.21,3.63-7.55,6.14-12.28,7.83
			c-0.91,0.32-1.84,0.62-2.77,0.89c-5.73,1.64-11.78,2.22-16.87,2.22l0,0h-0.01c-7.34,0-16.64-1.2-24.12-5.11
			c-1.46-0.76-2.86-1.64-4.16-2.62c-1.31-0.99-2.52-2.1-3.59-3.33l0,0l-0.01-0.01l-0.21-0.23v-0.31v-12.31v-0.31l0.21-0.23
			c3.18-3.66,7.53-6.19,12.25-7.86c0.91-0.34,1.85-0.63,2.78-0.9c5.72-1.63,11.78-2.19,16.84-2.19l0,0h0.01
			c6.11,0,12.69,0.75,18.78,2.81c1.2,0.4,2.37,0.86,3.51,1.36v0.01c0.72,0.32,1.44,0.66,2.12,1.02v-7.26
			c-2.72-2.03-5.96-3.47-9.38-4.45c-0.65-0.19-1.37-0.38-2.11-0.55c-4.36-1.02-8.89-1.38-12.9-1.38l0,0h-0.01
			c-5.26,0-13.48,0.93-19.72,3.61c-1.2,0.52-2.33,1.09-3.33,1.73c-0.99,0.63-1.88,1.33-2.62,2.11l0,0l-0.01,0.01l-0.63,0.67
			l-0.6-0.69l-4.1-4.72l-0.47-0.54l0.47-0.55c1.12-1.29,2.57-2.29,3.9-3.22l0.42-0.29l0.03-0.02c3.31-2.08,6.98-3.55,10.78-4.57
			c0.74-0.2,1.48-0.38,2.22-0.54C288.29,138.39,292.97,138.01,297.39,138.01L297.39,138.01z M229.13,181.44L229.13,181.44
			L229.13,181.44c5.31,0,13.54-0.96,19.79-3.68c1.19-0.52,2.32-1.11,3.34-1.77c0.99-0.64,1.88-1.35,2.63-2.13h0.01l0.63-0.67
			l0.6,0.7l4.1,4.78l0.45,0.54l-0.45,0.54c-0.56,0.66-1.21,1.27-1.89,1.8c-0.66,0.53-1.36,1-2.02,1.42l0,0
			c-3.34,2.18-7.07,3.74-10.96,4.82c-0.76,0.21-1.51,0.4-2.27,0.57c-4.66,1.06-9.46,1.48-13.93,1.48l0,0h-0.01
			c-7.29,0-16.65-1.23-24.13-5.13l0,0c-1.47-0.77-2.87-1.64-4.16-2.61l0,0c-1.31-0.99-2.51-2.1-3.58-3.32v-0.01v-0.01l-0.21-0.23
			v-0.31v-56.3v-0.83h0.83h5.88h0.83v0.83v17.43h41.14h0.83v0.83v6.74v0.83h-0.83h-41.14v27.31c2.66,2.03,5.93,3.46,9.39,4.45
			c0.72,0.21,1.43,0.39,2.13,0.55C220.55,181.08,225.14,181.44,229.13,181.44L229.13,181.44z M113.23,180.5
			c4.12-0.99,8.09-2.62,11.48-5.19v-5.68c-3.38-2.59-7.36-4.2-11.5-5.17c-4.3-1.01-8.77-1.33-12.91-1.33
			c-5.73,0-12.62,0.78-18.48,3.18c-1.12,0.46-2.22,0.98-3.26,1.58c-0.92,0.53-1.79,1.1-2.62,1.73v5.81c2.67,2.05,5.9,3.5,9.33,4.5
			c0.67,0.2,1.38,0.38,2.11,0.55c4.38,1.03,8.93,1.39,12.91,1.39l0,0h0.01C104.47,181.87,108.95,181.52,113.23,180.5L113.23,180.5z
			 M100.29,138.01L100.29,138.01L100.29,138.01c7.34-0.01,16.66,1.19,24.14,5.08c1.47,0.76,2.87,1.62,4.18,2.6
			c1.31,0.98,2.51,2.08,3.59,3.31l0,0l0.01,0.01l0.22,0.24v0.32v29.23v0.31l-0.21,0.24c-3.21,3.63-7.55,6.14-12.29,7.83
			c-0.91,0.32-1.83,0.62-2.77,0.89c-5.72,1.64-11.77,2.22-16.87,2.22l0,0h-0.01c-7.33,0-16.65-1.2-24.12-5.11
			c-1.47-0.76-2.86-1.64-4.16-2.62c-1.32-0.99-2.52-2.1-3.59-3.33l0,0l-0.01-0.01l-0.21-0.23v-0.31v-12.31v-0.31l0.21-0.23
			c3.18-3.66,7.52-6.19,12.26-7.86c0.9-0.34,1.84-0.63,2.77-0.9c5.71-1.63,11.77-2.19,16.84-2.19l0,0h0.01
			c6.11,0,12.69,0.75,18.79,2.81c1.18,0.4,2.35,0.86,3.49,1.36v0.01c0.73,0.32,1.44,0.66,2.13,1.02v-7.26
			c-2.73-2.03-5.97-3.47-9.39-4.45c-0.66-0.19-1.36-0.38-2.1-0.55c-4.38-1.02-8.9-1.38-12.92-1.38l0,0h-0.01
			c-5.26,0-13.49,0.93-19.73,3.61c-1.21,0.52-2.33,1.09-3.33,1.73c-1,0.63-1.88,1.33-2.63,2.11l0,0v0.01l-0.62,0.67l-0.59-0.69
			l-4.11-4.72l-0.47-0.54l0.47-0.55c1.12-1.29,2.57-2.29,3.9-3.22l0.42-0.29l0.03-0.02c3.31-2.08,6.97-3.55,10.77-4.57
			c0.74-0.2,1.49-0.38,2.23-0.54C91.19,138.39,95.87,138.01,100.29,138.01L100.29,138.01z M32.05,146.28L32.05,146.28L32.05,146.28
			c-4.11,0-8.63,0.35-12.98,1.38c-4.19,1-8.21,2.62-11.56,5.18v22.48c2.65,2.05,5.91,3.5,9.37,4.49c0.71,0.21,1.43,0.39,2.14,0.55
			c4.43,1.03,9.03,1.39,13.02,1.39l0,0h0.01c5.26,0,13.52-0.9,19.78-3.58c1.2-0.52,2.32-1.09,3.33-1.74
			c1.01-0.65,1.89-1.35,2.63-2.14h0.01l0.63-0.66l0.6,0.69l4.1,4.72l0.47,0.53l-0.47,0.55c-1.13,1.31-2.62,2.35-4.02,3.33
			l-0.18,0.12l-0.02,0.02c-3.34,2.1-7.04,3.59-10.87,4.62c-0.75,0.2-1.5,0.38-2.25,0.55c-4.59,1.01-9.31,1.39-13.72,1.39v0.01l0,0
			c-7.33,0-16.68-1.2-24.14-5.1c-1.47-0.77-2.87-1.65-4.16-2.63c-1.31-0.99-2.5-2.1-3.56-3.33l-0.02-0.01v-0.01L0,178.85v-0.29
			v-29.17v-0.31l0.21-0.24c3.18-3.66,7.53-6.17,12.26-7.87c0.9-0.32,1.83-0.62,2.77-0.89c5.72-1.63,11.77-2.19,16.84-2.19l0,0h0.01
			c6.34,0,13.33,0.81,19.71,3.12c1.24,0.45,2.47,0.96,3.66,1.53c1.2,0.57,2.36,1.21,3.47,1.91l0.01,0.01l0.02,0.01l0.18,0.13
			c1.4,0.97,2.89,2.01,4.01,3.32l0,0l0.47,0.54l-0.47,0.55l-4.1,4.71l-0.58,0.67l-0.63-0.62c-2.48-2.46-6-4.16-9.83-5.32
			c-0.78-0.24-1.55-0.44-2.29-0.62C40.95,146.67,35.98,146.28,32.05,146.28L32.05,146.28z M147.01,138.9l-0.12,11.6
			c0.93-1.03,2.01-1.98,3.21-2.86c4.92-3.59,11.98-5.99,19.08-6.64c7.14-0.65,14.37,0.46,19.6,3.89c1.75,1.15,3.27,2.55,4.51,4.24
			l0.17,0.22v0.27v5.33v0.83h-0.83h-5.88h-0.77l-0.06-0.77l-0.17-2.2c-0.78-0.73-1.63-1.36-2.53-1.9c-4.93-2.94-11.5-3-17.77-1.38
			c-6.32,1.63-12.31,4.97-16.06,8.8c-0.95,0.97-1.76,1.98-2.38,2.99v26.47v0.83h-0.83h-5.88h-0.83v-0.83V138.9v-0.83h0.83h5.88h0.84
			L147.01,138.9L147.01,138.9z"/>
		<path class="st1" d="M56.55,199.18c44.23,0,88.47,0,132.65,0c0,2.14,0,4.29,0,6.5c-23.67,5.74-47.12,9.35-70.17,9.49h-2.73
			c-20.26-0.12-40.21-2.98-59.74-9.49C56.55,203.47,56.55,201.33,56.55,199.18L56.55,199.18z M159.24,37.5
			c-4.48,25.67-9.13,51.96-12.68,74.5c15.93-3.61,35.9-4.9,52.26,1.41L159.24,37.5L159.24,37.5z M158.81,0L51.22,133.26
			c28.18-10.91,60.65-9.99,85.17-0.98L158.81,0L158.81,0z"/>
	</g>
	<rect x="465.63" y="31.13" class="st1" width="5.66" height="220.3"/>
</g>
</svg>
